<?xml version="1.0" encoding="UTF-8"?>
<!DOCTYPE svg PUBLIC "-//W3C//DTD SVG 1.0//EN" "http://www.w3.org/TR/2001/REC-SVG-20010904/DTD/svg10.dtd">
<!-- Creator: CorelDRAW X6 -->
<svg xmlns="http://www.w3.org/2000/svg" xml:space="preserve" width="180px" height="115px" version="1.0" style="shape-rendering:geometricPrecision; text-rendering:geometricPrecision; image-rendering:optimizeQuality; fill-rule:evenodd; clip-rule:evenodd"
viewBox="0 0 5277577 3370654"
 xmlns:xlink="http://www.w3.org/1999/xlink">
 <defs>
  <style type="text/css">
   <![CDATA[
    .fil1 {fill:#004580}
    .fil0 {fill:#191919}
    .fil2 {fill:#C2D7F0}
   ]]>
  </style>
 </defs>
 <g id="Слой_x0020_1">
  <metadata id="CorelCorpID_0Corel-Layer"/>
  <g id="_137861008">
   <g id="Document">
    <g id="Spread">
     <g id="Layer_x0020_1">
      <g id="Group">
       <path class="fil0" d="M767638 2457259l0 -623 383836 0 0 623 -383836 0zm3358464 0l0 -1214778 383802 -211449 -35 423176 -383352 -211276 0 1213704 383386 0 0 623 -383802 0zm-3358464 -998446l0 -427782 383836 211449 0 4814 -383836 211519z"/>
       <path class="fil1" d="M0 2457259l0 -1003363 767638 -422864 0 427782 383836 -211519 0 -427747 1487314 -819548 0 2457259 -1487314 0 0 -623 -383836 0 0 623 -767638 0zm2084089 -623l0 -704162 -924753 -509542 0 1213704 924753 0zm1117676 0l0 -704162 924753 -509542 0 1213704 -924753 0z"/>
       <path class="fil2" d="M49901 3356871c-15168,-8900 -27184,-20951 -36188,-36119 -8934,-15133 -13471,-32136 -13713,-50975l0 -134433 201718 0 0 33556 336359 0 0 -67147 -437201 0c-18839,-208 -35807,-4848 -50975,-13748 -15168,-8969 -27184,-21055 -36188,-36188 -8934,-15168 -13471,-32136 -13713,-50975l0 -268900c242,-18804 4779,-35842 13713,-50940 9004,-15202 21020,-27219 36188,-36153 15168,-8969 32136,-13575 50975,-13783l538043 0c18839,208 35807,4814 50940,13783 15168,8934 27219,20951 36223,36153 8900,15099 13471,32136 13713,50940l0 134467 -201718 0 0 -33591 -336359 0 0 67182 437201 0c18839,173 35807,4744 50940,13748 15168,8934 27219,21020 36223,36153 8900,15133 13471,32136 13713,50940l0 268935c-242,18839 -4814,35842 -13713,50975 -9004,15168 -21055,27219 -36223,36119 -15133,9004 -32102,13575 -50940,13783l-538043 0c-18839,-208 -35807,-4779 -50975,-13783zm1530082 13783l0 -537835 -269004 0 0 -201753 739657 0 0 201753 -268969 0 0 537835 -201684 0zm537766 0l0 -739588 638989 0c18804,208 35773,4814 50940,13783 15168,8934 27150,20951 36153,36153 8900,15099 13471,32136 13713,50940l0 369846c-139,16934 -3913,32483 -11324,46577 -7515,14060 -17557,25765 -30440,35045 -12744,9315 -27358,15306 -43599,17869l85362 85328 0 84046 -201684 0 -168162 -168058 -168162 0 0 168058 -201788 0zm806770 0l0 -638711c242,-18804 4814,-35842 13713,-50940 8969,-15202 20951,-27219 36050,-36153 15029,-8969 31825,-13575 50421,-13783l538770 0c18596,208 35461,4814 50594,13783 15237,8934 27323,20951 36327,36153 9073,15099 13713,32136 13921,50940l0 638711 -201753 0 0 -168058 -336290 0 0 168058 -201753 0zm806735 0l0 -739588 638989 0c18804,208 35773,4814 50906,13783 15168,8934 27184,20951 36188,36153 8900,15099 13471,32136 13713,50940l0 537835c-242,18839 -4814,35842 -13713,50975 -9004,15168 -21020,27219 -36188,36119 -15133,9004 -32102,13575 -50906,13783l-638989 0zm856671 -13783c-15202,-8900 -27254,-20951 -36188,-36084 -8900,-15168 -13506,-32171 -13713,-50975l0 -537870c208,-18804 4814,-35876 13713,-50975 8934,-15168 20986,-27184 36188,-36119 15133,-9004 32102,-13575 50940,-13783l537870 0c18839,208 35807,4779 50906,13783 15168,8934 27323,20951 36223,36119 8900,15099 13471,32171 13713,50975l0 537870c-242,18804 -4814,35807 -13713,50975 -8900,15133 -21055,27184 -36223,36084 -15099,9038 -32067,13609 -50906,13783l-537870 0c-18839,-173 -35807,-4744 -50940,-13783zm-3691083 -114659l0 -339372 339372 0 0 339372 -339372 0zm4179051 -73277l0 -336151 -336186 0 0 336151 336186 0zm-806562 -35l0 -336082 -336290 0 0 336082 336290 0zm-1613470 -167989l0 -168093 -336324 0 0 168093 336324 0zm806700 0l0 -168093 -336290 0 0 168093 336290 0zm-823773 -543653l0 -2457259 1487314 819548 0 423661 -924338 509265 0 704162 924338 0 0 623 -1487314 0zm1871116 0l0 -623 -383386 0 0 -1213704 383352 211276 35 -423176 767673 422864 0 1003363 -767673 0zm-3350569 -623l0 -1213704 924753 509542 0 704162 -924753 0z"/>
      </g>
     </g>
    </g>
   </g>
  </g>
 </g>
</svg>
